<!DOCTYPE svg PUBLIC "-//W3C//DTD SVG 1.1//EN" "http://www.w3.org/Graphics/SVG/1.1/DTD/svg11.dtd">
<!-- Uploaded to: SVG Repo, www.svgrepo.com, Transformed by: SVG Repo Mixer Tools -->
<svg fill="#754927" version="1.1" id="Capa_1" xmlns="http://www.w3.org/2000/svg" xmlns:xlink="http://www.w3.org/1999/xlink" width="800px" height="800px" viewBox="0 0 46.182 46.182" xml:space="preserve" stroke="#754927">
<g id="SVGRepo_bgCarrier" stroke-width="0"/>
<g id="SVGRepo_tracerCarrier" stroke-linecap="round" stroke-linejoin="round"/>
<g id="SVGRepo_iconCarrier"> <g> <path d="M46.119,34.254c0-3.069-1.831-5.866-4.705-6.952l-16.255-6.293l-0.052-2.079c3.113-0.892,5.406-3.759,5.406-7.156 c0-4.107-3.34-7.448-7.446-7.448c-2.021,0-4.818,1.563-6.336,3.861c-0.38,0.571-0.414,1.324-0.088,1.929 c0.325,0.606,0.955,1.001,1.644,1.001h0.034c0.644,0,1.238-0.364,1.555-0.925c0.668-1.189,2.072-2.018,3.195-2.018 c1.987,0,3.606,1.622,3.606,3.607c0,1.99-1.619,3.609-3.606,3.609c-0.004,0-0.006,0-0.009,0c-0.473,0-0.928,0.183-1.259,0.518 c-0.333,0.337-0.52,0.79-0.514,1.265l0.045,3.834L4.747,27.302C1.876,28.388,0,31.181,0,34.252v1.187 c0,3.443,2.693,6.418,6.135,6.418h33.879c3.439,0,6.168-2.959,6.168-6.401L46.119,34.254z M42.346,35.438 c0,1.324-1.012,2.55-2.334,2.55H6.135c-1.322,0-2.318-1.226-2.318-2.55v-1.188c0-1.484,0.892-2.833,2.278-3.355l16.999-6.44 l16.976,6.44c1.389,0.522,2.275,1.871,2.275,3.355V35.438L42.346,35.438z"/> </g> </g>
</svg>