<!DOCTYPE svg PUBLIC "-//W3C//DTD SVG 1.1//EN" "http://www.w3.org/Graphics/SVG/1.1/DTD/svg11.dtd">
<!-- Uploaded to: SVG Repo, www.svgrepo.com, Transformed by: SVG Repo Mixer Tools -->
<svg fill="#754927" version="1.1" id="Capa_1" xmlns="http://www.w3.org/2000/svg" xmlns:xlink="http://www.w3.org/1999/xlink" width="800px" height="800px" viewBox="0 0 45.818 45.818" xml:space="preserve">
<g id="SVGRepo_bgCarrier" stroke-width="0"/>
<g id="SVGRepo_tracerCarrier" stroke-linecap="round" stroke-linejoin="round"/>
<g id="SVGRepo_iconCarrier"> <g> <g> <path d="M6.392,2.07c-1.006-1.006-2.638-1.006-3.645,0L2.056,2.762c-1.007,1.006-1.007,2.64,0,3.646l37.34,37.34 c1.006,1.007,2.639,1.007,3.646,0l0.692-0.691c1.006-1.007,1.006-2.639,0-3.645L6.392,2.07z"/> <path d="M40.102,15.254H22.37l3.957,3.956h9.44v7.914H34.24l3.957,3.957h1.964c3.11,0,5.657-2.538,5.657-5.648v-4.469 C45.818,17.819,43.245,15.254,40.102,15.254z M41.861,25.432c0,0.931-0.771,1.691-1.7,1.691h-0.437v-7.914H40.1 c0.965,0,1.762,0.789,1.762,1.753V25.432z"/> <path d="M17.013,27.123v-2.964l-8.906-8.905H5.62c-3.111,0-5.62,2.538-5.62,5.648v4.529c0,3.11,2.509,5.648,5.62,5.648h18.315 l-3.958-3.957H17.013z"/> </g> </g> </g>
</svg>