<!DOCTYPE svg PUBLIC "-//W3C//DTD SVG 1.1//EN" "http://www.w3.org/Graphics/SVG/1.1/DTD/svg11.dtd">
<!-- Uploaded to: SVG Repo, www.svgrepo.com, Transformed by: SVG Repo Mixer Tools -->
<svg fill="#754927" version="1.1" id="Capa_1" xmlns="http://www.w3.org/2000/svg" xmlns:xlink="http://www.w3.org/1999/xlink" width="800px" height="800px" viewBox="0 0 45.77 45.77" xml:space="preserve">
<g id="SVGRepo_bgCarrier" stroke-width="0"/>
<g id="SVGRepo_tracerCarrier" stroke-linecap="round" stroke-linejoin="round"/>
<g id="SVGRepo_iconCarrier"> <g> <g> <path d="M37.6,18.443l-13.045-4.942l-0.044-1.778c2.5-0.716,4.339-3.018,4.339-5.744C28.85,2.682,26.17,0,22.874,0 c-1.622,0-3.867,1.254-5.086,3.1c-0.305,0.46-0.332,1.064-0.07,1.55c0.261,0.486,0.767,0.804,1.319,0.804h0.027 c0.517,0,0.994-0.293,1.248-0.743c0.536-0.955,1.663-1.62,2.564-1.62c1.595,0,2.895,1.296,2.895,2.891 c0,1.597-1.3,2.892-2.895,2.892c-0.003,0-0.005,0-0.007,0c-0.38,0-0.745,0.151-1.011,0.421c-0.268,0.27-0.417,0.636-0.412,1.017 l0.036,3.079l-13.32,5.051c-2.305,0.872-3.818,3.114-3.818,5.58v0.953c0,2.764,2.177,5.131,4.939,5.131h1.233v-3.088H9.283 c-1.062,0-1.853-0.98-1.853-2.043v-0.953c0-1.19,0.712-2.272,1.824-2.693l13.643-5.169l13.626,5.169 c1.114,0.42,1.828,1.503,1.828,2.693v0.953c0,1.062-0.816,2.043-1.877,2.043H35.32v3.088h1.154c2.762,0,4.951-2.367,4.951-5.129 l-0.05-0.955C41.377,21.559,39.906,19.314,37.6,18.443z"/> <path d="M32.861,43.51c0,1.248-1.013,2.26-2.262,2.26H15.169c-1.249,0-2.261-1.012-2.261-2.26V27.072 c0-1.248,1.012-2.26,2.261-2.26H30.6c1.249,0,2.262,1.012,2.262,2.26V43.51z"/> </g> </g> </g>
</svg>