<?xml version="1.0" encoding="UTF-8"?>
<!DOCTYPE svg PUBLIC "-//W3C//DTD SVG 1.1//EN" "http://www.w3.org/Graphics/SVG/1.1/DTD/svg11.dtd">
<!-- Creator: CorelDRAW (Evaluation Version) -->
<svg xmlns="http://www.w3.org/2000/svg" xml:space="preserve" width="740px" height="589px" version="1.1" style="shape-rendering:geometricPrecision; text-rendering:geometricPrecision; image-rendering:optimizeQuality; fill-rule:evenodd; clip-rule:evenodd"
viewBox="0 0 236.05 187.94"
 xmlns:xlink="http://www.w3.org/1999/xlink"
 xmlns:xodm="http://www.corel.com/coreldraw/odm/2003">
 <defs>
  <style type="text/css">
   <![CDATA[
    .str3 {stroke:#F5EFDF;stroke-width:1.28;stroke-miterlimit:2.61313}
    .str0 {stroke:#2D2A2B;stroke-width:0.64;stroke-miterlimit:2.61313}
    .str4 {stroke:#063D40;stroke-width:0.64;stroke-miterlimit:2.61313}
    .str2 {stroke:#063D40;stroke-width:5.1;stroke-miterlimit:2.61313}
    .str1 {stroke:#A8855B;stroke-width:5.1;stroke-miterlimit:2.61313}
    .fil1 {fill:none}
    .fil4 {fill:#063D40}
    .fil2 {fill:#5FC8B7}
    .fil0 {fill:#F5EFDF}
    .fil3 {fill:white}
   ]]>
  </style>
 </defs>
 <g id="Layer_x0020_1">
  <metadata id="CorelCorpID_0Corel-Layer"/>
  <rect class="fil0 str0" x="34.47" y="153.36" width="131.36" height="31.3"/>
  <line class="fil1 str1" x1="34.47" y1="174.61" x2="145.29" y2= "174.61" />
  <line class="fil1 str1" x1="34.47" y1="165.09" x2="136.65" y2= "165.09" />
  <line class="fil1 str1" x1="180.43" y1="184.66" x2="34.47" y2= "184.66" />
  <path class="fil2 str2" d="M130.54 153.36l-96.07 0.51 0 -51.81c0,-60.76 44.56,-99.51 99.51,-99.51 54.96,0 99.51,44.55 99.51,99.51 0,19.06 -5.36,36.87 -14.65,52 -3.33,5.41 -7.16,10.48 -11.43,15.15l0 0c-5.9,6.45 -13.3,10.17 -21.34,13.57 -0.96,0.41 -54.56,-29.82 -55.53,-29.42z"/>
  <path class="fil1 str2" d="M34.47 187.21l0 -85.15c0,-60.76 44.56,-99.51 99.51,-99.51 54.96,0 99.51,44.55 99.51,99.51 0,19.06 -5.36,36.87 -14.65,52 -3.33,5.41 -7.16,10.48 -11.43,15.15l0 0c-6.6,7.22 -15.09,11.02 -24.25,14.78"/>
  <rect class="fil0 str2" x="36.17" y="83.08" width="93.03" height="70.97"/>
  <rect class="fil2 str2" x="36.17" y="83.08" width="33.49" height="70.97"/>
  <rect class="fil2 str2" x="69.65" y="111.78" width="59.55" height="10.08"/>
  <rect class="fil2 str2" x="82" y="96.48" width="13.45" height="15.3"/>
  <rect class="fil2 str2" x="105.92" y="96.49" width="13.45" height="15.3"/>
  <rect class="fil2 str2" x="81.36" y="134.11" width="13.59" height="19.94"/>
  <rect class="fil2 str2" x="108.47" y="134.11" width="10.53" height="10.21"/>
  <circle class="fil0 str3" cx="196.18" cy="70.65" r="18.18"/>
  <path class="fil3 str0" d="M55.52 80.39c-1.05,-2.69 0.52,-8.08 2.8,-13.51 2.27,-5.43 5.26,-10.91 8.59,-15.69 3.33,-4.78 7,-8.85 11.06,-12.54 4.06,-3.69 8.51,-7 13.8,-9.57 5.29,-2.58 11.42,-4.42 17.12,-5.13 5.7,-0.72 10.97,-0.31 16.19,1.25 5.22,1.55 10.4,4.24 14.53,7.48 4.14,3.24 7.23,7.02 9.05,11.04 1.83,4.02 2.39,8.27 2.15,11.75 -0.23,3.48 -1.26,6.2 -2.83,8.27 -1.57,2.07 -3.68,3.5 -5.31,4.33 -1.62,0.83 -2.76,1.06 -2.99,0.32 -0.23,-0.74 0.45,-2.46 0.7,-4.95 0.25,-2.49 0.08,-5.76 -1.3,-9.17 -1.37,-3.41 -3.96,-6.97 -6.81,-9.49 -2.85,-2.52 -5.96,-4.01 -9.68,-4.69 -3.72,-0.68 -8.05,-0.54 -12.33,0.43 -4.28,0.98 -8.51,2.79 -12.04,4.91 -3.52,2.12 -6.34,4.53 -8.73,7.31 -2.39,2.78 -4.35,5.93 -5.85,9.61 -1.5,3.69 -2.54,7.9 -3.17,11.67 -0.63,3.78 -0.85,7.1 -3.55,8.54 -2.7,1.44 -7.88,0.98 -12.3,0.75 -4.42,-0.23 -8.06,-0.23 -9.1,-2.92z"/>
  <path class="fil2 str2" d="M119.29 83.08c0,-4.99 0,-9.99 1.34,-14.24 1.33,-4.25 3.99,-7.76 7.49,-10.04 3.5,-2.28 7.83,-3.33 12.17,-4.39 -0.93,-2.59 -1.86,-5.18 -5.04,-8.32 -3.17,-3.15 -8.6,-6.84 -15.56,-7.35 -6.97,-0.52 -15.47,2.14 -22.17,6.39 -6.7,4.25 -11.59,10.1 -14.34,16.69 -2.75,6.59 -3.37,13.93 -3.98,21.26l40.09 0z"/>
  <path class="fil1 str2" d="M87.34 83.08c0.13,-4.35 0.26,-8.71 1.55,-13.66 1.29,-4.94 3.74,-10.47 6.66,-14.83 2.93,-4.36 6.33,-7.55 9.7,-9.98 3.37,-2.44 6.71,-4.13 10.04,-5.81"/>
  <path class="fil1 str2" d="M98.1 83.08c-0.05,-4.25 -0.1,-8.5 1.2,-13.23 1.3,-4.73 3.96,-9.94 7.63,-14.14 3.67,-4.2 8.34,-7.39 12.27,-9.55 3.93,-2.16 7.1,-3.29 10.28,-4.41"/>
  <path class="fil1 str2" d="M110.36 83.08c0.01,-4.35 0.01,-8.71 0.98,-12.7 0.96,-3.99 2.87,-7.6 5.74,-10.84 2.87,-3.25 6.7,-6.12 10.25,-7.88 3.55,-1.76 6.83,-2.41 10.1,-3.07"/>
  <path class="fil2 str2" d="M138.77 69.37c2.3,-0.41 4.61,-0.81 6.64,-2.04 2.03,-1.22 3.78,-3.26 5.07,-6.78 1.29,-3.51 2.13,-8.51 0.52,-14.09 -1.6,-5.58 -5.64,-11.75 -13.14,-16.16 -7.49,-4.41 -18.44,-7.07 -28.75,-6.17 -10.32,0.91 -19.99,5.37 -27.81,11.17 -7.82,5.79 -13.79,12.91 -18.51,21.1 -4.71,8.19 -8.22,17.12 -9.88,26.68l-16.74 0c0.89,-4.14 1.78,-8.28 3.07,-13.1 1.29,-4.82 2.98,-10.32 7.25,-17.82 4.27,-7.5 11.12,-16.99 19.75,-24.98 8.63,-7.99 19.05,-14.48 30.53,-17.93 11.49,-3.46 24.03,-3.88 34.5,-2.23 10.47,1.64 18.87,5.37 25.41,10.84 6.54,5.48 11.22,12.71 13.66,20.36 2.45,7.65 2.66,15.73 0.53,21.95 -2.12,6.22 -6.59,10.58 -11.53,12.81 -4.94,2.24 -10.37,2.34 -13.87,1.39 -3.51,-0.96 -5.11,-2.98 -6.7,-5z"/>
  <path class="fil1 str2" d="M140.29 54.41c0.62,1.67 1.25,3.34 1.31,5.04 0.07,1.69 -0.42,3.41 -0.8,4.76 -0.37,1.35 -0.61,2.32 -0.93,3.12 -0.32,0.8 -0.71,1.42 -1.1,2.04"/>
  <path class="fil2 str2" d="M218.84 154.06c2.33,-6.01 4.67,-12.02 5.41,-18.32 0.74,-6.3 -0.11,-12.89 -2.45,-18.58 -2.34,-5.69 -6.17,-10.47 -11.22,-13.61 -5.05,-3.14 -11.32,-4.63 -17.33,-4.25 -6,0.37 -11.74,2.6 -15.68,5.68 -3.93,3.09 -6.06,7.02 -6.96,10.05 -0.9,3.03 -0.59,5.16 0.22,6.84 0.81,1.68 2.11,2.92 3.85,3.55 1.75,0.63 3.95,0.64 6.64,0.69 -0.13,0.03 -0.77,0.03 -1.41,-0.45 -0.64,-0.48 -1.27,-1.43 -1.38,-2.55 -0.11,-1.12 0.32,-2.39 1.22,-3.35 0.91,-0.95 2.29,-1.59 3.78,-1.49 1.48,0.11 3.08,0.96 4.2,2.5 1.11,1.54 1.75,3.78 1.64,6.38 -0.1,2.61 -0.95,5.58 -3.13,8.35 -2.18,2.76 -5.69,5.31 -9.52,5.79 -3.83,0.48 -7.97,-1.12 -11.48,-3.45 -3.51,-2.34 -6.38,-5.43 -10.15,-7.55 -3.78,-2.13 -8.45,-3.3 -12.92,-2.42 -4.47,0.87 -8.72,3.79 -12.97,6.7l0 19.49c4.89,8.13 9.78,16.26 17.38,22.08 7.6,5.82 17.92,9.32 26.98,9.25 9.07,-0.07 16.89,-3.72 22.85,-7.58 5.96,-3.85 10.07,-7.89 13.5,-11.89 3.43,-3.99 6.18,-7.93 8.93,-11.86z"/>
  <path class="fil3 str4" d="M132.6 141.99c1.73,-2.16 4.68,-3.09 7.11,-3.55 2.42,-0.47 4.33,-0.46 6.52,0.08 2.19,0.53 4.66,1.6 7.64,3.47 2.98,1.88 6.48,4.56 9.86,6.33 3.37,1.77 6.64,2.64 10.57,2.66 3.94,0.03 8.54,-0.78 11.95,-1.95 3.41,-1.16 5.63,-2.7 7.71,-5.21 2.09,-2.52 4.05,-6.03 5,-9.52 0.95,-3.49 0.9,-6.96 -0.23,-10.16 -1.12,-3.2 -3.31,-6.12 -5.96,-7.88 -2.65,-1.76 -5.76,-2.36 -8.37,-1.98 -2.61,0.38 -4.72,1.74 -5.62,1.22 -0.91,-0.52 -0.61,-2.91 0.79,-4.6 1.39,-1.68 3.87,-2.65 6.63,-3.2 2.77,-0.55 5.81,-0.68 8.93,0.16 3.12,0.85 6.31,2.65 9.03,5.26 2.72,2.6 4.97,6 6.23,10.4 1.26,4.39 1.53,9.77 0.62,14.9 -0.91,5.13 -3,10.01 -6.57,14.72 -3.57,4.71 -8.61,9.26 -13.27,12.1 -4.66,2.83 -8.93,3.95 -13.37,4.02 -4.43,0.08 -9.03,-0.9 -13.34,-2.84 -4.32,-1.94 -8.36,-4.84 -12.18,-7.5 -3.82,-2.65 -7.42,-5.06 -11.13,-6.35 -3.7,-1.29 -7.53,-1.46 -9.17,-3.24 -1.65,-1.79 -1.12,-5.18 0.62,-7.34z"/>
  <path class="fil1 str2" d="M129.2 141.66c4.78,-1.98 9.57,-3.97 13.96,-3.95 4.4,0.02 8.4,2.04 11.86,4.64 3.45,2.61 6.36,5.8 10.14,7.58 3.78,1.78 8.44,2.15 12.76,1.79 4.31,-0.36 8.28,-1.45 11.65,-3.42 3.38,-1.97 6.17,-4.83 8.02,-8.02 1.86,-3.19 2.78,-6.71 2.93,-10.08 0.14,-3.37 -0.51,-6.58 -1.83,-9.19 -1.32,-2.62 -3.33,-4.64 -5.46,-5.92 -2.13,-1.28 -4.4,-1.81 -6.48,-1.92 -2.08,-0.1 -3.98,0.21 -5.57,0.96 -1.59,0.74 -2.86,1.91 -3.61,3.24 -0.74,1.33 -0.95,2.82 -0.67,4.29 0.29,1.47 1.07,2.93 1.86,4.39"/>
  <path class="fil1 str2" d="M129.2 150.12c4.15,-0.02 8.29,-0.04 12.07,1.33 3.77,1.38 7.17,4.14 10.79,7.22 3.61,3.09 7.44,6.49 12.12,8.72 4.67,2.23 10.2,3.3 15.47,2.82 5.26,-0.48 10.26,-2.5 14.24,-5 3.99,-2.5 6.97,-5.47 9.57,-8.66 2.6,-3.19 4.84,-6.59 6.43,-10.32 1.6,-3.72 2.55,-7.76 2.87,-11.8 0.32,-4.04 0,-8.08 -1.38,-11.9 -1.38,-3.83 -3.83,-7.45 -6.75,-10.21 -2.92,-2.76 -6.33,-4.68 -9.57,-5.42 -3.24,-0.75 -6.32,-0.32 -9.14,0.37 -2.82,0.69 -5.37,1.65 -7.44,2.92 -2.08,1.28 -3.67,2.87 -4.47,4.74 -0.8,1.86 -0.8,3.98 -0.37,5.47 0.42,1.48 1.27,2.33 2.12,3.17"/>
  <line class="fil1 str2" x1="51.73" y1="83.08" x2="79.27" y2= "83.08" />
  <line class="fil1 str2" x1="34.48" y1="151.49" x2="34.48" y2= "37.81" />
  <ellipse class="fil4 str4" cx="34.51" cy="33.7" rx="4.24" ry="7.14"/>
  <path class="fil4 str4" d="M37.73 38.34c3.01,1.35 6.01,2.71 9.14,4.89 3.14,2.18 6.4,5.2 8.41,8.03 2.01,2.83 2.75,5.48 3.95,6.66 1.2,1.18 2.85,0.9 3.83,0.43 0.98,-0.46 1.29,-1.12 1.11,-3.29 -0.17,-2.18 -0.82,-5.88 -2.27,-9 -1.46,-3.11 -3.71,-5.65 -6.45,-7.72 -2.74,-2.06 -5.96,-3.67 -8.82,-4.37 -2.69,-0.65 -5.07,-0.5 -7.43,-0.31 -0.15,0.01 -1.8,3.89 -1.47,4.68z"/>
  <path class="fil4 str4" d="M38.75 33.7c0.96,-1.2 1.91,-2.39 4.18,-3.31 2.27,-0.92 5.86,-1.56 8.9,-1.89 2.78,-0.31 4.79,-0.01 6.66,-0.22 0.31,-0.04 0.06,-4.49 0.4,-4.61 0.35,0.21 1.99,4.78 2.53,4.98 1.21,0.43 3.51,0.62 5.5,0.91 2.13,0.31 3.94,0.36 4.9,-0.13 0.96,-0.5 1.08,-1.55 -0.18,-3.1 -1.26,-1.56 -3.89,-3.62 -6.99,-5.06 -3.1,-1.45 -6.67,-2.28 -9.98,-2.37 -3.31,-0.09 -6.37,0.57 -8.58,1.41 -2.22,0.84 -3.59,1.85 -4.66,2.85 -1.08,1.01 -1.86,2 -2.5,2.86 -0.55,0.72 -1,1.35 -1.42,1.96 -0.08,0.11 1.32,5.61 1.24,5.72z"/>
  <path class="fil4 str4" d="M37.4 28.13c0.2,-2 0.41,-3.99 0.82,-5.89 0.42,-1.89 1.05,-3.67 1.73,-5.43 0.68,-1.76 1.41,-3.5 2.74,-5.55 1.34,-2.06 3.29,-4.42 4.49,-6.09 1.21,-1.66 1.68,-2.62 0.2,-2.74 -1.49,-0.12 -4.92,0.61 -7.79,2.14 -2.87,1.54 -5.18,3.87 -6.43,6.37 -1.24,2.5 -1.43,5.16 -1.38,7.62 0.04,2.45 0.32,4.69 0.53,6.09 0.17,1.16 0.3,1.74 0.41,2.22 0.03,0.1 4.66,1.17 4.68,1.26z"/>
  <path class="fil4 str4" d="M32.79 27.16c-1.92,-2.38 -3.85,-4.77 -6.96,-6.4 -3.1,-1.62 -7.39,-2.5 -11.15,-2.18 -3.77,0.32 -7.02,1.83 -9.36,3.42 -2.34,1.58 -3.78,3.26 -4.47,4.55 -0.7,1.3 -0.65,2.21 -0.2,2.58 0.45,0.36 1.29,0.17 2.46,0.01 1.16,-0.16 2.65,-0.31 4.38,-0.48 1.73,-0.18 4.54,-3.49 6,-3.88 0.3,0.21 0.14,3.44 1.04,3.43 0.99,-0.02 2.04,-0.11 3.65,0.03 1.74,0.16 3.49,0.55 5.13,0.9 1.63,0.35 2.95,0.87 4.06,1.51 0.97,0.55 1.78,1.19 2.57,1.84 0.12,0.1 2.73,-5.43 2.85,-5.33z"/>
  <path class="fil4 str4" d="M31.28 38.32c-1.64,0.93 -3.29,1.87 -5.16,3.16 -1.88,1.29 -3.93,3 -5.6,4.75 -1.32,1.38 -3.06,5.13 -3.89,5.97 -0.54,0.56 -2.78,-3.29 -2.99,-2.98 -0.06,2.21 0.61,5.68 -0.92,7.56 -1.53,1.87 -3.53,4.35 -4.67,3.12 -1.15,-1.22 -1.73,-5.7 -0.69,-9.7 1.05,-4 3.74,-7.53 6.58,-10.25 2.85,-2.72 5.87,-4.63 8.62,-5.68 2.58,-0.99 4.93,-1.24 7.27,-1.44 0.15,-0.01 1.29,5.51 1.45,5.49z"/>
 </g>
</svg>
